<svg width="12" height="12" viewBox="0 0 12 12" fill="none" xmlns="http://www.w3.org/2000/svg">
<path d="M0 2C0 0.895431 0.895431 0 2 0H10C11.1046 0 12 0.895431 12 2C12 3.10457 11.1046 4 10 4H2C0.895431 4 0 3.10457 0 2Z" fill="#662C91"/>
<path d="M0 7.25C0 6.83579 0.335786 6.5 0.75 6.5H11.25C11.6642 6.5 12 6.83579 12 7.25C12 7.66421 11.6642 8 11.25 8H0.75C0.335786 8 0 7.66421 0 7.25Z" fill="#662C91"/>
<path d="M0.75 10.5C0.335786 10.5 0 10.8358 0 11.25C0 11.6642 0.335786 12 0.75 12H11.25C11.6642 12 12 11.6642 12 11.25C12 10.8358 11.6642 10.5 11.25 10.5H0.75Z" fill="#662C91"/>
</svg>
