<svg width="12" height="14" viewBox="0 0 12 14" fill="none" xmlns="http://www.w3.org/2000/svg">
<path fill-rule="evenodd" clip-rule="evenodd" d="M3.00001 3C3.00001 1.34315 4.34316 0 6.00001 0C7.65687 0 9.00001 1.34315 9.00001 3V4H9.64253C10.4132 4 11.0584 4.58394 11.1351 5.35074L11.8351 12.3507C11.9234 13.2338 11.23 14 10.3425 14H1.65749C0.770062 14 0.0766361 13.2338 0.164939 12.3507L0.864939 5.35075C0.941619 4.58394 1.58687 4 2.35749 4H3.00001V3ZM7.50001 3V4H4.50001V3C4.50001 2.17157 5.17159 1.5 6.00001 1.5C6.82844 1.5 7.50001 2.17157 7.50001 3ZM4.5 6.75C4.5 6.33579 4.16421 6 3.75 6C3.33579 6 3 6.33579 3 6.75V7.75C3 9.40685 4.34315 10.75 6 10.75C7.65685 10.75 9 9.40685 9 7.75V6.75C9 6.33579 8.66421 6 8.25 6C7.83579 6 7.5 6.33579 7.5 6.75V7.75C7.5 8.57843 6.82843 9.25 6 9.25C5.17157 9.25 4.5 8.57843 4.5 7.75V6.75Z" fill="white"/>
</svg>
