<svg width="12" height="12" viewBox="0 0 12 12" fill="none" xmlns="http://www.w3.org/2000/svg">
<path d="M1.5 0C0.671573 0 0 0.671573 0 1.5V3.5C0 4.32843 0.671573 5 1.5 5H3.5C4.32843 5 5 4.32843 5 3.5V1.5C5 0.671573 4.32843 0 3.5 0H1.5Z" fill="#662C91"/>
<path d="M1.5 7C0.671573 7 0 7.67157 0 8.5V10.5C0 11.3284 0.671573 12 1.5 12H3.5C4.32843 12 5 11.3284 5 10.5V8.5C5 7.67157 4.32843 7 3.5 7H1.5Z" fill="#662C91"/>
<path d="M7 1.5C7 0.671573 7.67157 0 8.5 0H10.5C11.3284 0 12 0.671573 12 1.5V3.5C12 4.32843 11.3284 5 10.5 5H8.5C7.67157 5 7 4.32843 7 3.5V1.5Z" fill="#662C91"/>
<path d="M8.5 7C7.67157 7 7 7.67157 7 8.5V10.5C7 11.3284 7.67157 12 8.5 12H10.5C11.3284 12 12 11.3284 12 10.5V8.5C12 7.67157 11.3284 7 10.5 7H8.5Z" fill="#662C91"/>
</svg>
