<svg width="13" height="13" viewBox="0 0 13 13" fill="none" xmlns="http://www.w3.org/2000/svg">
<path fill-rule="evenodd" clip-rule="evenodd" d="M6.5001 0.400391C3.05214 0.400391 0.100098 2.82711 0.100098 6.00039C0.100098 7.61993 0.882891 9.06062 2.09929 10.0683C2.08707 10.5839 1.9359 11.0636 1.68204 11.4731C1.57141 11.6516 1.56212 11.8749 1.65754 12.0619C1.75296 12.249 1.9392 12.3725 2.14862 12.3877C2.26478 12.3961 2.38199 12.4004 2.5001 12.4004C3.54306 12.4004 4.50952 12.0671 5.29703 11.5017C5.68714 11.5665 6.08936 11.6004 6.5001 11.6004C9.94805 11.6004 12.9001 9.17367 12.9001 6.00039C12.9001 2.82711 9.94805 0.400391 6.5001 0.400391ZM6.5001 6.80039C6.94193 6.80039 7.3001 6.44222 7.3001 6.00039C7.3001 5.55856 6.94193 5.20039 6.5001 5.20039C6.05827 5.20039 5.7001 5.55856 5.7001 6.00039C5.7001 6.44222 6.05827 6.80039 6.5001 6.80039ZM4.9001 6.00039C4.9001 6.44222 4.54193 6.80039 4.1001 6.80039C3.65827 6.80039 3.3001 6.44222 3.3001 6.00039C3.3001 5.55856 3.65827 5.20039 4.1001 5.20039C4.54193 5.20039 4.9001 5.55856 4.9001 6.00039ZM8.9001 6.80039C9.34192 6.80039 9.7001 6.44222 9.7001 6.00039C9.7001 5.55856 9.34192 5.20039 8.9001 5.20039C8.45827 5.20039 8.1001 5.55856 8.1001 6.00039C8.1001 6.44222 8.45827 6.80039 8.9001 6.80039Z" fill="#662C91"/>
</svg>
