<svg width="14" height="18" viewBox="0 0 14 18" fill="none" xmlns="http://www.w3.org/2000/svg">
<path fill-rule="evenodd" clip-rule="evenodd" d="M5.75 0C4.23122 0 3 1.23122 3 2.75V3.1927C2.20472 3.26972 1.41602 3.36947 0.634578 3.49129C0.225308 3.5551 -0.0547462 3.9386 0.00905886 4.34787C0.0728639 4.75714 0.456367 5.0372 0.865637 4.97339L1.01355 4.95062L1.85504 15.4693C1.96938 16.8985 3.16254 18 4.59629 18H9.40351C10.8372 18 12.0304 16.8985 12.1447 15.4693L12.9862 4.95055L13.1346 4.97339C13.5438 5.0372 13.9274 4.75714 13.9912 4.34787C14.055 3.9386 13.7749 3.5551 13.3656 3.49129C12.5841 3.36946 11.7954 3.2697 11 3.19268V2.75C11 1.23122 9.76878 0 8.25 0H5.75ZM7.00011 3C7.83946 3 8.673 3.02523 9.5 3.07499V2.75C9.5 2.05964 8.94036 1.5 8.25 1.5H5.75C5.05964 1.5 4.5 2.05964 4.5 2.75V3.075C5.32707 3.02524 6.16068 3 7.00011 3ZM5.57948 6.72002C5.56292 6.30614 5.21398 5.98404 4.8001 6.0006C4.38622 6.01716 4.06412 6.36609 4.08068 6.77998L4.38069 14.28C4.39725 14.6939 4.74619 15.016 5.16007 14.9994C5.57395 14.9828 5.89605 14.6339 5.87949 14.22L5.57948 6.72002ZM9.91949 6.77998C9.93605 6.36609 9.61395 6.01715 9.20007 6.0006C8.78619 5.98404 8.43725 6.30614 8.42069 6.72002L8.12069 14.22C8.10414 14.6339 8.42623 14.9828 8.84012 14.9994C9.254 15.016 9.60294 14.6939 9.61949 14.28L9.91949 6.77998Z" fill="#828282"/>
</svg>
