<svg width="18" height="15" viewBox="0 0 18 15" fill="none" xmlns="http://www.w3.org/2000/svg">
<path d="M5.875 12.625C5.875 13.3154 5.31536 13.875 4.625 13.875C3.93464 13.875 3.375 13.3154 3.375 12.625M5.875 12.625C5.875 11.9346 5.31536 11.375 4.625 11.375C3.93464 11.375 3.375 11.9346 3.375 12.625M5.875 12.625H10.875M3.375 12.625H1.8125C1.29473 12.625 0.875 12.2053 0.875 11.6875V8.87537M15.25 12.625C15.25 13.3154 14.6904 13.875 14 13.875C13.3096 13.875 12.75 13.3154 12.75 12.625M15.25 12.625C15.25 11.9346 14.6904 11.375 14 11.375C13.3096 11.375 12.75 11.9346 12.75 12.625M15.25 12.625L16.1875 12.625C16.7053 12.625 17.1281 12.2048 17.0962 11.688C16.9212 8.84831 15.9561 6.2224 14.418 4.02736C14.1162 3.5966 13.6274 3.33978 13.1022 3.31096H10.875M12.75 12.625H10.875M10.875 3.31096V2.51232C10.875 2.03942 10.5229 1.63934 10.0525 1.59052C8.67945 1.44803 7.28576 1.375 5.875 1.375C4.46424 1.375 3.07055 1.44803 1.69748 1.59052C1.2271 1.63934 0.875 2.03942 0.875 2.51232V8.87537M10.875 3.31096V8.87537M10.875 12.625V8.87537M10.875 8.87537H0.875" stroke="#662C91" stroke-width="1.5" stroke-linecap="round" stroke-linejoin="round"/>
</svg>
