<svg width="12" height="14" viewBox="0 0 12 14" fill="none" xmlns="http://www.w3.org/2000/svg">
<path d="M4.5 1.25C4.5 0.835786 4.16421 0.5 3.75 0.5C3.33579 0.5 3 0.835786 3 1.25V4.25C3 4.66421 3.33579 5 3.75 5C4.16421 5 4.5 4.66421 4.5 4.25V3.5H11.25C11.6642 3.5 12 3.16421 12 2.75C12 2.33579 11.6642 2 11.25 2H4.5V1.25Z" fill="#4F4F4F"/>
<path d="M9 5.5C9 5.08579 8.66421 4.75 8.25 4.75C7.83579 4.75 7.5 5.08579 7.5 5.5V8.5C7.5 8.91421 7.83579 9.25 8.25 9.25C8.66421 9.25 9 8.91421 9 8.5V7.75H11.25C11.6642 7.75 12 7.41421 12 7C12 6.58579 11.6642 6.25 11.25 6.25H9V5.5Z" fill="#4F4F4F"/>
<path d="M3.75 9C4.16421 9 4.5 9.33579 4.5 9.75V10.5H11.25C11.6642 10.5 12 10.8358 12 11.25C12 11.6642 11.6642 12 11.25 12H4.5V12.75C4.5 13.1642 4.16421 13.5 3.75 13.5C3.33579 13.5 3 13.1642 3 12.75V9.75C3 9.33579 3.33579 9 3.75 9Z" fill="#4F4F4F"/>
<path d="M0.75 6.25H6.5V7.75H0.75C0.335786 7.75 0 7.41421 0 7C0 6.58579 0.335786 6.25 0.75 6.25Z" fill="#4F4F4F"/>
<path d="M2 2H0.75C0.335786 2 0 2.33579 0 2.75C0 3.16421 0.335786 3.5 0.75 3.5H2V2Z" fill="#4F4F4F"/>
<path d="M0.75 10.5H2V12H0.75C0.335786 12 0 11.6642 0 11.25C0 10.8358 0.335786 10.5 0.75 10.5Z" fill="#4F4F4F"/>
</svg>
