<svg width="16" height="17" viewBox="0 0 16 17" fill="none" xmlns="http://www.w3.org/2000/svg">
<path d="M3.5 2.5C2.67157 2.5 2 3.17157 2 4V6C2 6.82843 2.67157 7.5 3.5 7.5H5.5C6.32843 7.5 7 6.82843 7 6V4C7 3.17157 6.32843 2.5 5.5 2.5H3.5Z" fill="#662C91"/>
<path d="M3.5 9.5C2.67157 9.5 2 10.1716 2 11V13C2 13.8284 2.67157 14.5 3.5 14.5H5.5C6.32843 14.5 7 13.8284 7 13V11C7 10.1716 6.32843 9.5 5.5 9.5H3.5Z" fill="#662C91"/>
<path d="M9 4C9 3.17157 9.67157 2.5 10.5 2.5H12.5C13.3284 2.5 14 3.17157 14 4V6C14 6.82843 13.3284 7.5 12.5 7.5H10.5C9.67157 7.5 9 6.82843 9 6V4Z" fill="#662C91"/>
<path d="M10.5 9.5C9.67157 9.5 9 10.1716 9 11V13C9 13.8284 9.67157 14.5 10.5 14.5H12.5C13.3284 14.5 14 13.8284 14 13V11C14 10.1716 13.3284 9.5 12.5 9.5H10.5Z" fill="#662C91"/>
</svg>
