<svg width="200" height="200" viewBox="0 0 200 200" fill="none" xmlns="http://www.w3.org/2000/svg">
<g clip-path="url(#clip0_857_20495)">
<g clip-path="url(#clip1_857_20495)">
<path d="M0 99.9999C0 44.7717 44.7717 0 99.9999 0C155.228 0 200 44.7717 200 99.9999C200 155.228 155.228 200 99.9999 200C44.7717 200 0 155.228 0 99.9999ZM99.9999 195.806C152.912 195.806 195.806 152.912 195.806 99.9999C195.806 47.0877 152.912 4.19355 99.9999 4.19355C47.0877 4.19355 4.19355 47.0877 4.19355 99.9999C4.19355 152.912 47.0877 195.806 99.9999 195.806Z" fill="#662C91"/>
<g clip-path="url(#clip2_857_20495)">
<g clip-path="url(#clip3_857_20495)">
<path d="M113.276 69.437L124.679 61.9203L141.621 59.2844L151.1 145.085L133.933 147.993L113.858 160.213L113.276 69.437ZM53.6307 49.3608L70.7967 46.7423L75.7431 39.7598L75.1621 55.7624L53.6307 49.3608Z" fill="#662C91"/>
<path d="M76.9064 40.3418V56.3444L111.53 67.9829L123.925 59.6603L141.498 56.9254L76.9064 40.3418ZM110.604 69.343L49.5625 49.4381L48.8998 132.375L111.268 160.241L110.604 69.343ZM100.39 71.6897C100.151 72.2332 99.6359 72.5906 98.9906 72.7553C98.3936 88.6387 95.7403 97.13 90.4592 100.165C88.9853 101.012 87.3883 101.372 85.7096 101.372C81.6761 101.372 77.1755 99.292 72.7859 96.885C60.9266 90.3817 58.4112 66.6723 57.9078 58.4314C57.2117 57.6777 56.9293 56.7594 57.2626 56.0004C57.7766 54.8263 59.5598 54.4743 61.2438 55.2132C62.9279 55.9522 63.8757 57.5024 63.3603 58.6764C63.0979 59.2748 62.5049 59.6563 61.7659 59.7915C62.1153 67.1783 64.0149 88.4232 74.3268 94.0778C79.723 97.0363 85.2169 99.4847 88.8649 97.3897C92.9251 95.0564 94.8943 85.956 95.4418 71.9052C94.3896 71.094 93.8876 69.9387 94.2932 69.015C94.8086 67.841 96.5904 67.4889 98.2745 68.2279C99.9572 68.9655 100.905 70.5157 100.39 71.6897Z" fill="#662C91"/>
</g>
</g>
</g>
</g>
<defs>
<clipPath id="clip0_857_20495">
<rect width="200" height="200" fill="white"/>
</clipPath>
<clipPath id="clip1_857_20495">
<rect width="200" height="200" fill="white"/>
</clipPath>
<clipPath id="clip2_857_20495">
<rect width="102.2" height="120.481" fill="white" transform="translate(48.8998 39.7598)"/>
</clipPath>
<clipPath id="clip3_857_20495">
<rect width="102.2" height="120.481" fill="white" transform="translate(48.8998 39.7598)"/>
</clipPath>
</defs>
</svg>
