<svg width="16" height="17" viewBox="0 0 16 17" fill="none" xmlns="http://www.w3.org/2000/svg">
<path d="M3 5.25C3.55228 5.25 4 4.80228 4 4.25C4 3.69772 3.55228 3.25 3 3.25C2.44772 3.25 2 3.69772 2 4.25C2 4.80228 2.44772 5.25 3 5.25Z" fill="#0F172A"/>
<path d="M6.25 3.5C5.83579 3.5 5.5 3.83579 5.5 4.25C5.5 4.66421 5.83579 5 6.25 5H13.25C13.6642 5 14 4.66421 14 4.25C14 3.83579 13.6642 3.5 13.25 3.5H6.25Z" fill="#0F172A"/>
<path d="M6.25 7.75C5.83579 7.75 5.5 8.08579 5.5 8.5C5.5 8.91421 5.83579 9.25 6.25 9.25H13.25C13.6642 9.25 14 8.91421 14 8.5C14 8.08579 13.6642 7.75 13.25 7.75H6.25Z" fill="#0F172A"/>
<path d="M6.25 12C5.83579 12 5.5 12.3358 5.5 12.75C5.5 13.1642 5.83579 13.5 6.25 13.5H13.25C13.6642 13.5 14 13.1642 14 12.75C14 12.3358 13.6642 12 13.25 12H6.25Z" fill="#0F172A"/>
<path d="M4 12.75C4 13.3023 3.55228 13.75 3 13.75C2.44772 13.75 2 13.3023 2 12.75C2 12.1977 2.44772 11.75 3 11.75C3.55228 11.75 4 12.1977 4 12.75Z" fill="#0F172A"/>
<path d="M3 9.5C3.55228 9.5 4 9.05229 4 8.5C4 7.94772 3.55228 7.5 3 7.5C2.44772 7.5 2 7.94772 2 8.5C2 9.05229 2.44772 9.5 3 9.5Z" fill="#0F172A"/>
</svg>
