<svg width="16" height="13" viewBox="0 0 16 13" fill="none" xmlns="http://www.w3.org/2000/svg">
<path fill-rule="evenodd" clip-rule="evenodd" d="M1.68451 3.15739C1.14245 3.42842 0.800049 3.98244 0.800049 4.58848V10.7996C0.800049 11.6833 1.51639 12.3996 2.40005 12.3996H13.6C14.4837 12.3996 15.2 11.6833 15.2 10.7996V4.58848C15.2 3.98244 14.8576 3.42842 14.3156 3.15739L8.71559 0.357393C8.26515 0.132171 7.73495 0.132171 7.28451 0.357393L1.68451 3.15739ZM2.86838 6.36297C2.57199 6.21477 2.21159 6.33491 2.06339 6.63129C1.9152 6.92768 2.03533 7.28808 2.33172 7.43628L7.01618 9.77851C7.63554 10.0882 8.36456 10.0882 8.98392 9.77851L13.6659 7.43753C13.9623 7.28933 14.0824 6.92893 13.9342 6.63254C13.786 6.33616 13.4256 6.21602 13.1292 6.36422L8.44726 8.70519C8.16573 8.84596 7.83436 8.84596 7.55283 8.70519L2.86838 6.36297Z" fill="#4F4F4F"/>
</svg>
