<svg width="20" height="20" viewBox="0 0 20 20" fill="none" xmlns="http://www.w3.org/2000/svg">
<path d="M7.5 5.62567V12.5007M12.5 7.50067V14.3757M12.9193 17.291L16.9818 15.2598C17.2994 15.101 17.5 14.7764 17.5 14.4213V4.01758C17.5 3.32066 16.7666 2.86738 16.1432 3.17905L12.9193 4.79104C12.6553 4.92301 12.3447 4.92301 12.0807 4.79104L7.91926 2.7103C7.65533 2.57834 7.34467 2.57834 7.08074 2.7103L3.01824 4.74155C2.70063 4.90036 2.5 5.22498 2.5 5.58008V15.9838C2.5 16.6807 3.23342 17.134 3.85676 16.8223L7.08074 15.2103C7.34467 15.0783 7.65533 15.0783 7.91926 15.2103L12.0807 17.291C12.3447 17.423 12.6553 17.423 12.9193 17.291Z" stroke="#662C91" stroke-width="1.5" stroke-linecap="round" stroke-linejoin="round"/>
</svg>
