<svg width="14" height="14" viewBox="0 0 14 14" fill="none" xmlns="http://www.w3.org/2000/svg">
<path fill-rule="evenodd" clip-rule="evenodd" d="M0 2C0 0.895431 0.895431 0 2 0H2.91442C3.488 0 3.98798 0.390371 4.1271 0.94683L4.86429 3.89562C4.98627 4.38353 4.80396 4.89703 4.40162 5.19879L3.5392 5.8456C3.44965 5.91277 3.43018 6.01112 3.45533 6.07979C4.21234 8.14632 5.85368 9.78766 7.92021 10.5447C7.98888 10.5698 8.08724 10.5504 8.1544 10.4608L8.80121 9.59839C9.10297 9.19604 9.61647 9.01373 10.1044 9.13571L13.0532 9.8729C13.6096 10.012 14 10.512 14 11.0856V12C14 13.1046 13.1046 14 12 14H10.5C4.70101 14 0 9.29899 0 3.5V2Z" fill="#4F4F4F"/>
</svg>
