<svg width="12" height="12" viewBox="0 0 12 12" fill="none" xmlns="http://www.w3.org/2000/svg">
<path fill-rule="evenodd" clip-rule="evenodd" d="M0 1C0 0.447715 0.447715 0 1 0H4C4.55228 0 5 0.447715 5 1V9.5C5 10.8807 3.88071 12 2.5 12C1.11929 12 0 10.8807 0 9.5V1ZM3.25 9.5C3.25 9.91421 2.91421 10.25 2.5 10.25C2.08579 10.25 1.75 9.91421 1.75 9.5C1.75 9.08579 2.08579 8.75 2.5 8.75C2.91421 8.75 3.25 9.08579 3.25 9.5Z" fill="#4F4F4F"/>
<path d="M6.5 9.03493L10.2776 5.25729C10.6682 4.86676 10.6682 4.2336 10.2776 3.84308L8.15633 1.72176C7.7658 1.33123 7.13264 1.33123 6.74211 1.72175L6.5 1.96387V9.03493Z" fill="#4F4F4F"/>
<path d="M5.65625 12H10.9998C11.5521 12 11.9998 11.5523 11.9998 11V8C11.9998 7.44772 11.5521 7 10.9998 7H10.6562L5.65625 12Z" fill="#4F4F4F"/>
</svg>
