<svg width="14" height="12" viewBox="0 0 14 12" fill="none" xmlns="http://www.w3.org/2000/svg">
<path fill-rule="evenodd" clip-rule="evenodd" d="M0 1C0 0.447715 0.447715 0 1 0H13C13.5523 0 14 0.447715 14 1V7C14 7.55228 13.5523 8 13 8H1C0.447716 8 0 7.55228 0 7V1ZM9 4C9 5.10457 8.10457 6 7 6C5.89543 6 5 5.10457 5 4C5 2.89543 5.89543 2 7 2C8.10457 2 9 2.89543 9 4ZM2.75 3.25C2.33579 3.25 2 3.58579 2 4C2 4.41421 2.33579 4.75 2.75 4.75C3.16421 4.75 3.5 4.41421 3.5 4C3.5 3.58579 3.16421 3.25 2.75 3.25ZM10.5 4C10.5 3.58579 10.8358 3.25 11.25 3.25C11.6642 3.25 12 3.58579 12 4C12 4.41421 11.6642 4.75 11.25 4.75C10.8358 4.75 10.5 4.41421 10.5 4Z" fill="#4F4F4F"/>
<path d="M12 9.75C12 9.33579 11.6642 9 11.25 9C10.8358 9 10.5 9.33579 10.5 9.75V9.92858C10.5 10.079 10.3616 10.2084 10.1939 10.1839C7.11075 9.73326 3.95739 9.5 0.75 9.5C0.335786 9.5 0 9.83579 0 10.25C0 10.6642 0.335786 11 0.75 11C3.88456 11 6.96543 11.228 9.97703 11.6681C11.031 11.8221 12 11.0128 12 9.92858V9.75Z" fill="#4F4F4F"/>
</svg>
