<svg width="12" height="13" viewBox="0 0 12 13" fill="none" xmlns="http://www.w3.org/2000/svg">
<path d="M2.5 5.5C3.18136 5.5 3.79906 5.22742 4.25 4.78536C4.70094 5.22742 5.31864 5.5 6 5.5C6.68136 5.5 7.29906 5.22742 7.75 4.78536C8.20094 5.22742 8.81864 5.5 9.5 5.5C10.8807 5.5 12 4.38071 12 3C12 1.61929 10.8807 0.5 9.5 0.5H2.5C1.11929 0.5 0 1.61929 0 3C0 4.38071 1.11929 5.5 2.5 5.5Z" fill="#662C91"/>
<path d="M4.25 6.59741C3.72129 6.85499 3.12707 6.99995 2.5 6.99995C1.96955 6.99995 1.46322 6.89669 1 6.70919V10.9999H0.75C0.335786 10.9999 0 11.3357 0 11.7499C0 12.1642 0.335786 12.4999 0.75 12.4999H1.25C1.29708 12.4999 1.34314 12.4956 1.38782 12.4873C1.42388 12.4956 1.46143 12.4999 1.5 12.4999H4C4.27614 12.4999 4.5 12.2761 4.5 11.9999V8.99995C4.5 8.7238 4.72386 8.49995 5 8.49995H7C7.27614 8.49995 7.5 8.7238 7.5 8.99995V11.9999C7.5 12.2761 7.72386 12.4999 8 12.4999H10.5C10.5386 12.4999 10.5761 12.4956 10.6122 12.4873C10.6569 12.4956 10.7029 12.4999 10.75 12.4999H11.25C11.6642 12.4999 12 12.1642 12 11.7499C12 11.3357 11.6642 10.9999 11.25 10.9999H11V6.70919C10.5368 6.89669 10.0304 6.99995 9.5 6.99995C8.87292 6.99995 8.27872 6.85499 7.75 6.59741C7.22129 6.85499 6.62708 6.99995 6 6.99995C5.37292 6.99995 4.77871 6.85499 4.25 6.59741Z" fill="#662C91"/>
</svg>
