<svg width="65" height="66" viewBox="0 0 65 66" fill="none" xmlns="http://www.w3.org/2000/svg">
<path fill-rule="evenodd" clip-rule="evenodd" d="M21.1763 5.66252C23.9235 2.5031 27.9777 0.5 32.5 0.5C37.022 0.5 41.0761 2.50291 43.8233 5.66205C48.0003 5.37021 52.284 6.82053 55.4821 10.0186C58.6801 13.2166 60.1305 17.5003 59.8386 21.6773C62.9974 24.4245 65 28.4783 65 33C65 37.5226 62.9966 41.577 59.8369 44.3242C60.1281 48.5006 58.6777 52.7834 55.4802 55.9809C52.2827 59.1783 48 60.6287 43.8236 60.3376C41.0764 63.4969 37.0222 65.5 32.5 65.5C27.978 65.5 23.924 63.4971 21.1768 60.3381C16.9997 60.6299 12.716 59.1796 9.51791 55.9815C6.31986 52.7835 4.86953 48.4998 5.16137 44.3227C2.00262 41.5755 0 37.5217 0 33C0 28.4781 2.00282 24.4241 5.16185 21.6769C4.87033 17.5002 6.32069 13.2169 9.51846 10.0191C12.7163 6.82133 16.9996 5.37098 21.1763 5.66252ZM44.5343 26.9531C45.3369 25.8296 45.0766 24.2682 43.9531 23.4657C42.8296 22.6631 41.2682 22.9234 40.4657 24.0469L29.681 39.1455L24.2678 33.7322C23.2915 32.7559 21.7085 32.7559 20.7322 33.7322C19.7559 34.7085 19.7559 36.2915 20.7322 37.2678L28.2322 44.7678C28.7519 45.2874 29.4738 45.5521 30.2062 45.4915C30.9386 45.4309 31.6072 45.0511 32.0343 44.4531L44.5343 26.9531Z" fill="#662C91"/>
</svg>
