<svg width="14" height="14" viewBox="0 0 14 14" fill="none" xmlns="http://www.w3.org/2000/svg">
<path fill-rule="evenodd" clip-rule="evenodd" d="M14 7C14 10.866 10.866 14 7 14C3.13401 14 0 10.866 0 7C0 3.13401 3.13401 0 7 0C10.866 0 14 3.13401 14 7ZM9 5C9 6.10457 8.10457 7 7 7C5.89543 7 5 6.10457 5 5C5 3.89543 5.89543 3 7 3C8.10457 3 9 3.89543 9 5ZM6.99913 8C5.17453 8 3.5782 8.97733 2.70508 10.437C3.71303 11.6947 5.26204 12.5 6.99913 12.5C8.73623 12.5 10.2852 11.6947 11.2932 10.437C10.4201 8.97733 8.82373 8 6.99913 8Z" fill="white"/>
</svg>
