<svg width="50" height="50" viewBox="0 0 50 50" fill="none" xmlns="http://www.w3.org/2000/svg">
<g clip-path="url(#clip0_666_6726)">
<g clip-path="url(#clip1_666_6726)">
<path d="M0 25C0 11.1929 11.1929 0 25 0C38.807 0 49.9999 11.1929 49.9999 25C49.9999 38.807 38.807 49.9999 25 49.9999C11.1929 49.9999 0 38.807 0 25ZM25 48.9516C38.228 48.9516 48.9516 38.228 48.9516 25C48.9516 11.7719 38.228 1.04839 25 1.04839C11.7719 1.04839 1.04839 11.7719 1.04839 25C1.04839 38.228 11.7719 48.9516 25 48.9516Z" fill="white"/>
<g clip-path="url(#clip2_666_6726)">
<g clip-path="url(#clip3_666_6726)">
<path d="M28.319 17.3588L31.1697 15.4796L35.4053 14.8206L37.7751 36.2706L33.4833 36.9979L28.4645 40.0528L28.319 17.3588ZM13.4077 12.3397L17.6992 11.6851L18.9358 9.93945L18.7906 13.9401L13.4077 12.3397Z" fill="white"/>
<path d="M19.2266 10.085V14.0856L27.8825 16.9952L30.9812 14.9146L35.3745 14.2309L19.2266 10.085ZM27.6509 17.3353L12.3906 12.359L12.225 33.0932L27.8169 40.0597L27.6509 17.3353ZM25.0974 17.9219C25.0378 18.0578 24.909 18.1472 24.7477 18.1883C24.5984 22.1592 23.9351 24.282 22.6148 25.0407C22.2463 25.2526 21.8471 25.3426 21.4274 25.3426C20.419 25.3426 19.2939 24.8225 18.1965 24.2208C15.2317 22.5949 14.6028 16.6676 14.477 14.6074C14.3029 14.4189 14.2323 14.1894 14.3157 13.9996C14.4442 13.7061 14.89 13.6181 15.311 13.8028C15.732 13.9876 15.9689 14.3751 15.8401 14.6686C15.7745 14.8182 15.6262 14.9136 15.4415 14.9474C15.5288 16.7941 16.0037 22.1053 18.5817 23.519C19.9308 24.2586 21.3043 24.8707 22.2162 24.3469C23.2313 23.7636 23.7236 21.4885 23.8605 17.9758C23.5974 17.773 23.4719 17.4842 23.5733 17.2533C23.7022 16.9598 24.1476 16.8717 24.5686 17.0565C24.9893 17.2409 25.2263 17.6284 25.0974 17.9219Z" fill="white"/>
</g>
</g>
</g>
</g>
<defs>
<clipPath id="clip0_666_6726">
<rect width="50" height="50" fill="white"/>
</clipPath>
<clipPath id="clip1_666_6726">
<rect width="50" height="50" fill="white"/>
</clipPath>
<clipPath id="clip2_666_6726">
<rect width="25.5501" height="30.1203" fill="white" transform="translate(12.225 9.93945)"/>
</clipPath>
<clipPath id="clip3_666_6726">
<rect width="25.5501" height="30.1203" fill="white" transform="translate(12.225 9.93945)"/>
</clipPath>
</defs>
</svg>
